<svg width="48" height="48" viewBox="0 0 48 48" fill="none" xmlns="http://www.w3.org/2000/svg">
<g clip-path="url(#clip0_66_86)">
<path d="M34.5 3.702C32.4486 3.72184 30.4304 4.22187 28.607 5.16203C26.7837 6.10219 25.2059 7.45635 24 9.116C22.7941 7.45635 21.2163 6.10219 19.393 5.16203C17.5696 4.22187 15.5514 3.72184 13.5 3.702C9.78354 3.85041 6.27704 5.46435 3.74723 8.19092C1.21742 10.9175 -0.129851 14.5348 -5.38304e-07 18.252C-5.38304e-07 27.356 9.348 37.102 17.2 43.676C19.1067 45.2792 21.5179 46.1582 24.009 46.1582C26.5001 46.1582 28.9113 45.2792 30.818 43.676C38.662 37.102 48.018 27.356 48.018 18.252C48.1478 14.5318 46.798 10.9119 44.2644 8.18478C41.7307 5.4577 38.2196 3.84577 34.5 3.702ZM26.954 39.078C26.1268 39.7744 25.0803 40.1563 23.999 40.1563C22.9177 40.1563 21.8712 39.7744 21.044 39.078C11.484 31.062 6 23.472 6 18.252C5.87248 16.1264 6.58856 14.0364 7.99276 12.4356C9.39697 10.8348 11.3759 9.85249 13.5 9.702C15.6241 9.85249 17.603 10.8348 19.0072 12.4356C20.4114 14.0364 21.1275 16.1264 21 18.252C21 19.0476 21.3161 19.8107 21.8787 20.3733C22.4413 20.9359 23.2044 21.252 24 21.252C24.7956 21.252 25.5587 20.9359 26.1213 20.3733C26.6839 19.8107 27 19.0476 27 18.252C26.8725 16.1264 27.5886 14.0364 28.9928 12.4356C30.397 10.8348 32.3759 9.85249 34.5 9.702C36.6241 9.85249 38.603 10.8348 40.0072 12.4356C41.4114 14.0364 42.1275 16.1264 42 18.252C42 23.472 36.516 31.062 26.954 39.078Z" fill="black"/>
</g>
<defs>
<clipPath id="clip0_66_86">
<rect width="48" height="48" fill="white"/>
</clipPath>
</defs>
</svg>
