<svg width="48" height="48" viewBox="0 0 48 48" fill="none" xmlns="http://www.w3.org/2000/svg">
<g clip-path="url(#clip0_66_84)">
<path d="M10.6 37.4C11.5001 38.3002 12.0058 39.521 12.0058 40.794C12.0058 42.067 11.5001 43.2878 10.6 44.188C8.04285 45.9411 5.18851 47.2151 2.17599 47.948C1.88359 48.0155 1.57884 48.0078 1.29024 47.9255C1.00165 47.8432 0.738643 47.6891 0.525842 47.4775C0.313041 47.2659 0.157398 47.0037 0.073477 46.7156C-0.0104441 46.4275 -0.0199004 46.1228 0.0459929 45.83C0.776351 42.8158 2.04835 39.9594 3.79999 37.4C4.24593 36.9525 4.77582 36.5975 5.35926 36.3552C5.94271 36.1129 6.56825 35.9882 7.19999 35.9882C7.83174 35.9882 8.45727 36.1129 9.04072 36.3552C9.62417 36.5975 10.1541 36.9525 10.6 37.4ZM12.514 16.278C12.58 16.186 12.546 16.232 12.514 16.278ZM36 17C36 15.6739 35.4732 14.4021 34.5355 13.4645C33.5978 12.5268 32.3261 12 31 12C29.6739 12 28.4021 12.5268 27.4645 13.4645C26.5268 14.4021 26 15.6739 26 17C26 18.3261 26.5268 19.5978 27.4645 20.5355C28.4021 21.4732 29.6739 22 31 22C32.3261 22 33.5978 21.4732 34.5355 20.5355C35.4732 19.5978 36 18.3261 36 17ZM32.048 35.258L32.064 35.246C31.6485 36.7017 31.0974 38.1152 30.418 39.468C28.8185 42.9544 26.1133 45.8156 22.722 47.608C21.9828 47.9162 21.1788 48.0367 20.3817 47.9588C19.5846 47.8809 18.8192 47.607 18.1537 47.1614C17.4882 46.7159 16.9432 46.1126 16.5674 45.4054C16.1917 44.6981 15.9967 43.9089 16 43.108V38C15.9921 36.4111 15.3574 34.8896 14.2339 33.7661C13.1104 32.6426 11.5889 32.0079 9.99999 32H4.78399C4.00072 32.0033 3.22881 31.8127 2.53709 31.4453C1.84538 31.0778 1.25537 30.5448 0.819703 29.8938C0.384032 29.2429 0.116241 28.4943 0.0402159 27.7147C-0.0358095 26.9351 0.0822943 26.1488 0.383993 25.426C2.1364 22.1094 4.93446 19.4639 8.34399 17.9C9.67988 17.2294 11.0761 16.6863 12.514 16.278C12.452 16.366 12.482 16.322 12.514 16.278C20.176 5.6 28.938 0.341996 40.916 -4.33029e-06C41.8413 -0.00764965 42.7591 0.167579 43.6165 0.515618C44.474 0.863657 45.2542 1.37765 45.9125 2.02808C46.5707 2.67851 47.094 3.45257 47.4522 4.3058C47.8104 5.15903 47.9966 6.07462 48 7C47.658 19.062 42.75 27.586 32.066 35.246L32.048 35.258ZM42 6.916C41.9821 6.66437 41.8685 6.42917 41.6825 6.25878C41.4965 6.08839 41.2522 5.99578 41 6C30.928 6.288 24.4 10 17.776 19.228C16.1594 21.5428 14.72 23.9764 13.47 26.508C15.3336 27.0733 17.0323 28.0824 18.4201 29.4486C19.808 30.8148 20.8435 32.4974 21.438 34.352L25.764 32.2C26.776 31.6 27.8 30.932 28.774 30.234C38 23.6 41.712 17.072 42 6.916ZM32.064 35.246L32.084 35.232L32.066 35.246H32.064Z" fill="black"/>
</g>
<defs>
<clipPath id="clip0_66_84">
<rect width="48" height="48" fill="white"/>
</clipPath>
</defs>
</svg>
