<svg width="48" height="48" viewBox="0 0 48 48" fill="none" xmlns="http://www.w3.org/2000/svg">
<g clip-path="url(#clip0_66_88)">
<path d="M14 48C16.2091 48 18 46.2091 18 44C18 41.7909 16.2091 40 14 40C11.7909 40 10 41.7909 10 44C10 46.2091 11.7909 48 14 48Z" fill="black"/>
<path d="M34 48C36.2091 48 38 46.2091 38 44C38 41.7909 36.2091 40 34 40C31.7909 40 30 41.7909 30 44C30 46.2091 31.7909 48 34 48Z" fill="black"/>
<path d="M45.968 12.036C44.5601 10.6898 42.6755 9.95749 40.728 10H11.308L10.782 5.876C10.591 4.25739 9.81276 2.76511 8.5948 1.68207C7.37684 0.599037 5.80384 0.000523753 4.174 0L3 0C2.20435 0 1.44129 0.31607 0.87868 0.87868C0.31607 1.44129 0 2.20435 0 3C0 3.79565 0.31607 4.55871 0.87868 5.12132C1.44129 5.68393 2.20435 6 3 6H4.174C4.33761 6.00175 4.49478 6.06404 4.61518 6.17484C4.73558 6.28563 4.81069 6.43709 4.826 6.6L7.826 30.118C8.01522 31.7379 8.79275 33.2318 10.0109 34.3162C11.2291 35.4005 12.8031 35.9997 14.434 36H34.678C37.0861 35.9986 39.4273 35.207 41.3421 33.7466C43.2569 32.2863 44.6396 30.238 45.278 27.916L47.77 18.854C48.1022 17.6599 48.1104 16.3989 47.7937 15.2006C47.477 14.0023 46.8468 12.91 45.968 12.036ZM39.5 26.326C39.2072 27.3806 38.5774 28.3105 37.7068 28.9739C36.8362 29.6372 35.7725 29.9976 34.678 30H14.434C14.2705 29.9986 14.1133 29.9364 13.9931 29.8255C13.873 29.7146 13.7984 29.5629 13.784 29.4L12.074 16H41.028C41.1825 15.9988 41.3351 16.0335 41.4739 16.1012C41.6128 16.169 41.734 16.2679 41.8282 16.3904C41.9224 16.5128 41.9869 16.6554 42.0167 16.807C42.0465 16.9586 42.0408 17.115 42 17.264L39.5 26.326Z" fill="black"/>
</g>
<defs>
<clipPath id="clip0_66_88">
<rect width="48" height="48" fill="white"/>
</clipPath>
</defs>
</svg>
