<svg width="48" height="48" viewBox="0 0 48 48" fill="none" xmlns="http://www.w3.org/2000/svg">
<g clip-path="url(#clip0_66_92)">
<path d="M30 31.25C30 28.9957 29.1045 26.8337 27.5104 25.2396C25.9163 23.6455 23.7543 22.75 21.5 22.75C19.2457 22.75 17.0837 23.6455 15.4896 25.2396C13.8955 26.8337 13 28.9957 13 31.25C13 32.0456 13.3161 32.8087 13.8787 33.3713C14.4413 33.9339 15.2044 34.25 16 34.25C16.7956 34.25 17.5587 33.9339 18.1213 33.3713C18.6839 32.8087 19 32.0456 19 31.25C19 30.587 19.2634 29.9511 19.7322 29.4822C20.2011 29.0134 20.837 28.75 21.5 28.75C22.163 28.75 22.7989 29.0134 23.2678 29.4822C23.7366 29.9511 24 30.587 24 31.25C24 32.5 21.616 34.288 19.7 35.724C16.56 38.08 13 40.75 13 45C13 45.7956 13.3161 46.5587 13.8787 47.1213C14.4413 47.6839 15.2044 48 16 48H27C27.7956 48 28.5587 47.6839 29.1213 47.1213C29.6839 46.5587 30 45.7956 30 45C30 44.2044 29.6839 43.4413 29.1213 42.8787C28.5587 42.3161 27.7956 42 27 42H21.4C22.02 41.492 22.69 41 23.31 40.526C26.44 38.17 30 35.5 30 31.25Z" fill="black"/>
<path d="M45 22C44.2044 22 43.4413 22.3161 42.8787 22.8787C42.3161 23.4413 42 24.2044 42 25V34H40.5C39.8373 33.9989 39.202 33.7352 38.7334 33.2666C38.2648 32.798 38.0011 32.1627 38 31.5V25C38 24.2044 37.6839 23.4413 37.1213 22.8787C36.5587 22.3161 35.7956 22 35 22C34.2044 22 33.4413 22.3161 32.8787 22.8787C32.3161 23.4413 32 24.2044 32 25V31.5C32.0026 33.7535 32.899 35.914 34.4925 37.5075C36.086 39.101 38.2465 39.9974 40.5 40H42V45C42 45.7956 42.3161 46.5587 42.8787 47.1213C43.4413 47.6839 44.2044 48 45 48C45.7956 48 46.5587 47.6839 47.1213 47.1213C47.6839 46.5587 48 45.7956 48 45V25C48 24.2044 47.6839 23.4413 47.1213 22.8787C46.5587 22.3161 45.7956 22 45 22Z" fill="black"/>
<path d="M44.586 5.414L41.94 8.06C38.0165 3.64426 32.6024 0.830525 26.7339 0.157369C20.8654 -0.515786 14.9548 0.99892 10.1333 4.41157C5.31189 7.82422 1.91833 12.8951 0.60219 18.6536C-0.713947 24.4121 0.139792 30.4537 3 35.622C3.19107 35.9666 3.44815 36.2702 3.75654 36.5154C4.06494 36.7606 4.41862 36.9427 4.79739 37.0513C5.17616 37.1598 5.5726 37.1927 5.96408 37.1481C6.35556 37.1034 6.73441 36.9821 7.079 36.791C7.42359 36.5999 7.72717 36.3429 7.9724 36.0345C8.21764 35.7261 8.39973 35.3724 8.50829 34.9936C8.61684 34.6148 8.64972 34.2184 8.60506 33.8269C8.5604 33.4354 8.43907 33.0566 8.248 32.712C6.08593 28.8114 5.4503 24.2466 6.4645 19.9036C7.4787 15.5607 10.0704 11.7496 13.7364 9.21002C17.4025 6.67044 21.8814 5.58362 26.3037 6.16053C30.726 6.73744 34.7761 8.93692 37.668 12.332L35.414 14.586C35.1344 14.8657 34.944 15.222 34.8668 15.6099C34.7897 15.9978 34.8293 16.3999 34.9806 16.7653C35.132 17.1307 35.3883 17.443 35.7171 17.6628C36.0459 17.8826 36.4325 17.9999 36.828 18H46C46.5304 18 47.0391 17.7893 47.4142 17.4142C47.7893 17.0391 48 16.5304 48 16V6.828C47.9999 6.4325 47.8826 6.0459 47.6628 5.71708C47.443 5.38826 47.1307 5.13199 46.7653 4.98065C46.3999 4.82931 45.9978 4.7897 45.6099 4.86683C45.222 4.94397 44.8657 5.13438 44.586 5.414Z" fill="black"/>
</g>
<defs>
<clipPath id="clip0_66_92">
<rect width="48" height="48" fill="white"/>
</clipPath>
</defs>
</svg>
